<?xml version="1.0" encoding="UTF-8" standalone="no"?>
<!-- Created with Inkscape (http://www.inkscape.org/) -->

<svg
   width="24"
   height="24"
   viewBox="0 0 6.3500002 6.3500002"
   version="1.1"
   id="svg1"
   sodipodi:docname="Kreate-logo-final-round.svg"
   inkscape:version="1.4.3 (0d15f75, 2025-12-25)"
   xml:space="preserve"
   xmlns:inkscape="http://www.inkscape.org/namespaces/inkscape"
   xmlns:sodipodi="http://sodipodi.sourceforge.net/DTD/sodipodi-0.dtd"
   xmlns="http://www.w3.org/2000/svg"
   xmlns:svg="http://www.w3.org/2000/svg"><sodipodi:namedview
     id="namedview1"
     pagecolor="#505050"
     bordercolor="#eeeeee"
     borderopacity="1"
     inkscape:showpageshadow="0"
     inkscape:pageopacity="0"
     inkscape:pagecheckerboard="0"
     inkscape:deskcolor="#505050"
     inkscape:document-units="px"
     inkscape:zoom="5.6568543"
     inkscape:cx="27.400388"
     inkscape:cy="54.182057"
     inkscape:window-width="1920"
     inkscape:window-height="1009"
     inkscape:window-x="-8"
     inkscape:window-y="-8"
     inkscape:window-maximized="1"
     inkscape:current-layer="layer1"><inkscape:page
       x="0"
       y="0"
       width="6.3500004"
       height="6.3500004"
       id="page2"
       margin="0"
       bleed="0" /></sodipodi:namedview><defs
     id="defs1" /><g
     inkscape:label="Background"
     id="layer1"
     inkscape:groupmode="layer"
     style="display:inline"
     transform="matrix(0.04686136,0,0,0.04686152,5.4620883e-5,1.2150553e-4)"><path
       id="path7"
       style="fill:#ffffff;fill-opacity:1;stroke:none;stroke-width:1.0577"
       d="M 65.93768,0.02257885 A 67.752937,67.752937 0 0 0 4.4875713,43.497869 67.752937,67.752937 0 0 0 43.485698,131.00963 67.752937,67.752937 0 0 0 131.00481,92.028654 67.752937,67.752937 0 0 0 92.043439,4.5021928 l -0.05146,-0.019605 A 67.752937,67.752937 0 0 0 65.93768,0.02257885 Z M 45.813725,35.631589 c 0.107392,-0.0051 0.216978,-0.0043 0.328374,0.0025 2.12148,0.128263 4.257024,0.02931 6.386146,0.02941 2.223457,8.9e-5 3.36946,1.143091 3.369513,3.364611 1.13e-4,4.557716 -0.03223,9.117366 0.03431,13.674095 0.0098,0.668966 0.486861,1.329502 0.747419,1.994752 0.606396,-0.283063 1.349043,-0.424652 1.796257,-0.869947 5.651199,-5.62696 11.269082,-11.286953 16.867168,-16.96764 0.689221,-0.699394 1.401195,-0.995817 2.379488,-0.985123 4.067659,0.04446 8.138483,0.04608 12.206213,0.0049 1.14652,-0.01162 2.119905,0.187334 2.553478,1.360057 0.406812,1.100353 -0.343295,1.805959 -1.026782,2.494665 -8.252389,8.31528 -16.504677,16.629813 -24.757954,24.944196 -4.19379,4.224837 -8.402546,8.434443 -12.566444,12.688972 -0.667488,0.682024 -1.046027,0.694565 -1.715389,0.0025 -2.791703,-2.886461 -5.674512,-5.684837 -8.444611,-8.591645 -0.480081,-0.503773 -0.775449,-1.36273 -0.818485,-2.07807 -0.112523,-1.870325 -0.03676,-3.751939 -0.03676,-5.744101 0,-7.50689 0.04086,-14.89909 -0.03431,-22.290245 -0.01611,-1.584179 1.121493,-2.957119 2.732368,-3.033786 z m 26.416979,30.823076 c 0.323166,0.0049 0.644166,0.190758 0.990024,0.551375 1.344506,1.401901 2.709033,2.786577 4.104679,4.136536 0.633708,0.61296 0.629874,1.070689 0.0025,1.695784 -3.373337,3.360592 -6.725779,6.744795 -10.064428,10.140395 -0.589907,0.599967 -1.045033,0.721247 -1.683531,0.04901 -1.442633,-1.518852 -2.914543,-3.011086 -4.430603,-4.455108 -0.616143,-0.586861 -0.50815,-0.94045 0.04166,-1.472783 1.532217,-1.483492 3.017415,-3.018462 4.577636,-4.589889 1.860495,-1.875716 3.677506,-3.679661 5.459835,-5.518649 0.35387,-0.365113 0.679112,-0.541533 1.002277,-0.536672 z m -29.20326,6.93752 c 0.340549,0.191332 0.745158,0.316995 1.01208,0.583232 3.080176,3.072285 6.162958,6.140702 9.177327,9.2778 0.461753,0.480554 0.758364,1.284531 0.816034,1.965345 0.122431,1.445146 0.03676,2.909007 0.03676,4.479614 0,1.87707 -0.02438,3.639591 0.0098,5.401023 0.01812,0.933699 -0.370315,1.285426 -1.284091,1.276739 -2.965795,-0.02819 -5.932123,-0.02789 -8.897964,-0.0025 -0.935932,0.0081 -1.252435,-0.402182 -1.249783,-1.313497 0.01997,-6.856818 0.0055,-13.713149 0.02696,-20.569956 0.0011,-0.366366 0.229813,-0.731869 0.352879,-1.097849 z m 36.545122,0.639595 c 0.326987,0.01 0.643479,0.205805 0.958167,0.585683 2.241891,2.7063 4.462625,5.430706 6.71452,8.12849 1.442587,1.728214 2.930689,3.416406 4.388943,5.131461 1.747,2.054664 3.500917,4.105152 5.21478,6.187651 0.465881,0.566096 0.60437,1.227112 -0.215648,1.801157 -0.519914,0.115029 -0.952106,0.258314 -1.384564,0.259759 -4.789089,0.01598 -9.579894,0.0492 -14.367602,-0.03431 -0.768942,-0.01343 -1.709364,-0.393883 -2.261862,-0.92876 -3.205416,-3.1032 -6.305438,-6.313992 -9.471393,-9.459141 -0.645211,-0.640965 -0.58213,-1.091413 0.02696,-1.698234 3.140378,-3.128637 6.264573,-6.276599 9.370921,-9.439537 0.362202,-0.368804 0.699795,-0.544172 1.026782,-0.534221 z" /></g></svg>
