<svg id="vector" xmlns="http://www.w3.org/2000/svg" width="108" height="108" viewBox="0 0 108 108"><defs><linearGradient gradientUnits="userSpaceOnUse" x1="42.31" y1="45.78" x2="65.3" y2="61.88" id="gradient_0"><stop offset="0" stop-color="#a305ff"/><stop offset="1" stop-color="#261b8c"/></linearGradient><linearGradient gradientUnits="userSpaceOnUse" x1="24.41" y1="34.33" x2="83.59" y2="73.67" id="gradient_1"><stop offset="0" stop-color="#a305ff"/><stop offset="1" stop-color="#2615c1"/></linearGradient></defs><path fill="#17121f" d="M54,54m-27.5,0a27.5,27.5 0,1 1,55 0a27.5,27.5 0,1 1,-55 0" stroke-linejoin="round" stroke-width="1.04" stroke="#17121f" fill-rule="evenodd" stroke-linecap="round" id="path_0"/><path fill="url(#gradient_0)" d="M54,54m-14.81,0a14.81,14.81 0,1 1,29.62 0a14.81,14.81 0,1 1,-29.62 0" stroke-linejoin="round" stroke-width="1.06" stroke="#00000000" fill-rule="evenodd" stroke-linecap="round" id="path_1"/><path fill="#2615c1" d="M78.91,55.72A25.58,25.58 45,0 1,71.8 71.79L71.07,71.08A24.56,24.56 0,0 0,77.89 55.66Z" fill-rule="evenodd" id="path_2"/><path fill="#261b8c" d="M74.33,55.55A20.72,20.72 0,0 1,68.66 68.3L68.02,67.7A19.84,19.84 45,0 0,73.45 55.49Z" fill-rule="evenodd" id="path_3"/><path fill="#a305ff" d="m33.46,51.82a20.72,20.72 135,0 1,6.01 -12.8l0.74,0.76a19.65,19.65 135,0 0,-5.71 12.14z" fill-rule="evenodd" id="path_4"/><path fill="#8120ab" d="m29.2,51.03a25.6,25.6 45,0 1,7.69 -15.51l0.71,0.74a24.58,24.58 0,0 0,-7.37 14.87z" fill-rule="evenodd" id="path_5"/><path fill="#FFFFFF" d="M47,35 L58,65 A7,7 0 1,0 60,72 L60,42 Q60,39 58,37 Q56,36 54,36 Z" id="path_6"/><path fill="#00000000" d="M22.45,54a31.55,31.55 0,1 0,63.09 0a31.55,31.55 0,1 0,-63.09 0z" stroke-linejoin="round" stroke-width="8.90827" fill-rule="evenodd" stroke-linecap="round" stroke="url(#gradient_1)" id="path_7"/></svg>