<?xml version="1.0" encoding="UTF-8" standalone="no"?>
<!-- Created with Inkscape (http://www.inkscape.org/) -->

<svg width="108" height="108" viewBox="0 0 108 108" version="1.1" id="svg1" xml:space="preserve"
        xmlns="http://www.w3.org/2000/svg"><defs
     id="defs1" /><g
     id="layer5"
     transform="matrix(0.54104342,0,0,0.54104366,17.353328,17.353312)"><path
       style="fill:none;fill-opacity:0;fill-rule:evenodd;stroke:#ffffff;stroke-width:6.35;stroke-dasharray:none;stroke-opacity:1"
       id="path6"
       d="M 85.810398,20.664914 A 50.420399,50.420399 0 0 1 114.80536,85.801036 50.420399,50.420399 0 0 1 49.675002,114.80895 50.420399,50.420399 0 0 1 20.654136,49.684366 50.420399,50.420399 0 0 1 85.772944,20.650547 Z" /></g><g
     id="layer3"
     style="display:inline"
     transform="matrix(0.54104342,0,0,0.54104366,17.353325,17.353309)"><g
       id="g1"
       transform="matrix(0.24257722,0,0,0.24257722,19.475628,19.811644)"><path
         fill="#000000"
         opacity="1"
         stroke="none"
         d="m 269,394 c -89.63841,0 -178.77684,0 -267.957628,0 0,-130.93024 0,-261.8605 0,-392.895377 131.845998,0 263.734448,0 395.790268,0 0,130.895197 0,261.895287 0,392.895377 C 354.4729,394 311.98645,394 269,394 M 91,168.5 c 0,8.16432 -0.326859,16.34846 0.16613,24.48291 0.188553,3.11116 1.485001,6.84541 3.588356,9.03642 12.136504,12.64231 24.761154,24.81465 36.992314,37.36846 2.93264,3.01004 4.58905,2.95214 7.51348,-0.0141 18.24309,-18.50383 36.68166,-36.81491 55.05571,-55.1896 36.15969,-36.16097 72.321,-72.3203 108.4768,-108.485172 2.99453,-2.99533 6.27624,-6.06501 4.49389,-10.85067 -1.89959,-5.100418 -6.16574,-5.968727 -11.18893,-5.918182 -17.82175,0.179325 -35.64762,0.182045 -53.46906,-0.01135 -4.28615,-0.04651 -7.40761,1.233105 -10.42726,4.274914 -24.52663,24.706482 -49.13898,49.3288 -73.89831,73.80161 -1.95936,1.93668 -5.22164,2.55513 -7.87841,3.78623 -1.14157,-2.89331 -3.22932,-5.77272 -3.27212,-8.68219 -0.29149,-19.81816 -0.15224,-39.642665 -0.15274,-59.465113 -2.3e-4,-9.66185 -5.01366,-14.633675 -14.75519,-14.634064 -9.32822,-3.74e-4 -18.68203,0.426399 -27.97677,-0.131443 C 96.458984,57.399971 90.782951,63.705124 90.858246,71.054382 91.187576,103.20004 91,135.35098 91,168.5 m 234.86108,151.16385 c 3.20844,-2.33188 2.59842,-5.20224 0.55728,-7.66431 -7.50887,-9.05722 -15.18777,-17.97409 -22.84182,-26.91025 -6.38898,-7.45913 -12.91333,-14.80361 -19.23367,-22.31997 -9.86612,-11.73322 -19.5944,-23.58225 -29.41669,-35.35251 -2.75745,-3.30432 -5.52228,-3.42928 -8.69608,-0.22127 -13.60969,13.75627 -27.29223,27.44136 -41.05102,41.04845 -2.66857,2.63919 -2.95101,4.59698 -0.12418,7.38467 13.87085,13.6789 27.45769,27.64942 41.50143,41.14588 2.42063,2.32629 6.54221,3.98407 9.91114,4.04242 20.97616,0.36318 41.96185,0.20883 62.94406,0.13928 1.89471,-0.006 3.78741,-0.62735 6.44955,-1.29239 M 139,292.50003 c 0,-6.33093 0.3727,-12.69363 -0.16367,-18.97879 -0.25267,-2.961 -1.54937,-6.45233 -3.57243,-8.54236 -13.20671,-13.64389 -26.71801,-26.99396 -40.213042,-40.35596 -1.169449,-1.15792 -2.941277,-1.70747 -4.433304,-2.53961 -0.539185,1.59172 -1.543625,3.18198 -1.548638,4.77538 -0.09377,29.82167 -0.02913,59.64384 -0.116584,89.46556 -0.01162,3.9635 1.371475,5.75156 5.47203,5.71664 12.994098,-0.11068 25.990478,-0.11767 38.984378,0.005 4.00348,0.0378 5.71388,-1.49457 5.63449,-5.55542 C 138.89345,308.82956 139,301.16376 139,292.50003 m 50.99998,-74.00005 c -6.58572,6.58446 -13.08837,13.25536 -19.8014,19.70737 -2.40886,2.31523 -2.88512,3.85509 -0.18564,6.40747 6.64224,6.28035 13.09215,12.77425 19.41269,19.38005 2.79742,2.92368 4.79042,2.39109 7.37495,-0.21829 14.62746,-14.76817 29.31331,-29.47943 44.09275,-44.09534 2.74908,-2.71867 2.76342,-4.71098 -0.013,-7.37687 -6.11468,-5.87125 -12.08731,-11.89572 -17.97793,-17.99288 -3.03059,-3.13684 -5.62839,-3.24096 -8.72917,-0.065 -7.80884,7.99814 -15.77194,15.84566 -24.17324,24.25354 z"
         id="path1"
         style="display:inline;fill:#000000;fill-opacity:0" /><path
         fill="#ffffff"
         opacity="1"
         stroke="none"
         d="m 91,168 c 0,-32.64902 0.187576,-64.79996 -0.141754,-96.945618 -0.07529,-7.349258 5.600738,-13.654411 13.409644,-13.185741 9.29474,0.557842 18.64855,0.131069 27.97677,0.131443 9.74153,3.89e-4 14.75496,4.972214 14.75519,14.634064 5e-4,19.822448 -0.13875,39.646952 0.15274,59.465112 0.0428,2.90947 2.13055,5.78888 3.27212,8.68219 2.65677,-1.2311 5.91905,-1.84955 7.87841,-3.78623 24.75933,-24.47281 49.37168,-49.095127 73.89831,-73.801609 3.01965,-3.041809 6.14111,-4.321422 10.42726,-4.274914 17.82144,0.193394 35.64731,0.190674 53.46906,0.01135 5.02319,-0.05054 9.28934,0.817764 11.18893,5.918182 1.78235,4.78566 -1.49936,7.85534 -4.49389,10.85067 -36.1558,36.164871 -72.31711,72.324201 -108.4768,108.485171 -18.37405,18.37469 -36.81262,36.68577 -55.05571,55.1896 -2.92443,2.96626 -4.58084,3.02416 -7.51348,0.0141 C 119.51564,226.83396 106.89099,214.66162 94.754486,202.01931 92.651131,199.8283 91.354683,196.09405 91.16613,192.98289 90.673141,184.84846 91,176.66432 91,168 Z"
         id="path2" /><path
         fill="#ffffff"
         opacity="1"
         stroke="none"
         d="m 325.47681,319.82861 c -2.27787,0.50028 -4.17057,1.12134 -6.06528,1.12763 -20.98221,0.0695 -41.9679,0.2239 -62.94406,-0.13928 -3.36893,-0.0584 -7.49051,-1.71613 -9.91114,-4.04242 -14.04374,-13.49646 -27.63058,-27.46698 -41.50143,-41.14588 -2.82683,-2.78769 -2.54439,-4.74548 0.12418,-7.38467 13.75879,-13.60709 27.44133,-27.29218 41.05102,-41.04845 3.1738,-3.20801 5.93863,-3.08305 8.69608,0.22127 9.82229,11.77026 19.55057,23.61929 29.41669,35.35251 6.32034,7.51636 12.84469,14.86084 19.23367,22.31997 7.65405,8.93616 15.33295,17.85303 22.84182,26.91025 2.04114,2.46207 2.65116,5.33243 -0.94155,7.82907 z"
         id="path3" /><path
         fill="#ffffff"
         opacity="1"
         stroke="none"
         d="m 139,293 c 0,8.16376 -0.10655,15.82956 0.0432,23.49039 0.0794,4.06085 -1.63101,5.5932 -5.63449,5.55542 -12.9939,-0.12259 -25.99028,-0.1156 -38.984378,-0.005 -4.100555,0.0349 -5.48365,-1.75314 -5.47203,-5.71664 0.08746,-29.82172 0.02281,-59.64389 0.116584,-89.46556 0.005,-1.5934 1.009453,-3.18366 1.548638,-4.77538 1.492027,0.83214 3.263855,1.38169 4.433304,2.53961 13.495032,13.362 27.006332,26.71207 40.213042,40.35596 2.02306,2.09003 3.31976,5.58136 3.57243,8.54236 C 139.3727,279.8064 139,286.1691 139,293 Z"
         id="path4" /><path
         fill="#ffffff"
         opacity="1"
         stroke="none"
         d="m 190.24998,218.24998 c 8.1513,-8.15788 16.1144,-16.0054 23.92324,-24.00354 3.10078,-3.17591 5.69858,-3.07179 8.72917,0.065 5.89062,6.09716 11.86325,12.12163 17.97793,17.99288 2.77643,2.66589 2.76209,4.6582 0.013,7.37687 -14.77944,14.61591 -29.46529,29.32717 -44.09275,44.09534 -2.58453,2.60938 -4.57753,3.14197 -7.37495,0.21829 -6.32054,-6.6058 -12.77045,-13.0997 -19.41269,-19.38005 -2.69948,-2.55238 -2.22322,-4.09224 0.18564,-6.40747 6.71303,-6.45201 13.21568,-13.12291 20.0514,-19.95737 z"
         id="path5" /></g></g></svg>
